<?xml version="1.0" standalone="no"?>
<!DOCTYPE svg PUBLIC "-//W3C//DTD SVG 20010904//EN"
 "http://www.w3.org/TR/2001/REC-SVG-20010904/DTD/svg10.dtd">
<svg version="1.0" xmlns="http://www.w3.org/2000/svg"
 width="1920.000000pt" height="1080.000000pt" viewBox="0 0 1920.000000 1080.000000"
 preserveAspectRatio="xMidYMid meet">

<g transform="translate(0.000000,1080.000000) scale(0.100000,-0.100000)"
fill="#333333" stroke="none">
<path d="M11975 10655 c-123 -20 -317 -69 -439 -112 -135 -47 -1402 -549
-1435 -569 -48 -29 -66 -64 -66 -129 1 -56 56 -199 764 -1980 858 -2161 781
-1990 894 -1990 57 1 114 22 772 284 391 155 765 309 832 341 450 215 759 557
850 942 24 103 24 343 0 458 -41 191 -133 417 -231 565 -140 210 -350 373
-571 446 -38 12 -71 23 -72 24 -2 1 15 37 36 81 71 145 86 215 85 409 0 190
-13 263 -77 431 -163 427 -435 693 -802 786 -108 27 -408 34 -540 13z m469
-142 c287 -55 524 -248 673 -548 97 -194 143 -365 143 -538 0 -167 -32 -276
-135 -457 -53 -94 -32 -127 108 -170 366 -114 594 -351 732 -764 51 -151 68
-268 62 -411 -12 -259 -110 -460 -331 -680 -130 -129 -272 -228 -451 -315
-116 -57 -1524 -620 -1548 -620 -11 0 -1515 3773 -1525 3825 -3 19 28 34 370
169 837 332 1028 406 1140 440 296 90 541 112 762 69z"/>
<path d="M11849 9605 c-52 -13 -272 -97 -348 -133 -38 -17 -66 -70 -56 -105 4
-12 58 -154 122 -314 121 -309 141 -343 200 -343 30 0 284 98 365 142 180 96
250 275 184 472 -46 135 -118 226 -215 269 -58 26 -176 32 -252 12z m185 -135
c46 -17 103 -79 132 -142 24 -53 29 -76 29 -144 0 -71 -3 -85 -28 -122 -37
-56 -82 -85 -238 -148 -73 -30 -133 -54 -134 -54 -5 0 -195 485 -195 496 0 9
83 45 225 95 83 30 162 37 209 19z"/>
<path d="M12465 8179 c-21 -5 -120 -42 -219 -81 -196 -77 -226 -98 -226 -155
0 -42 254 -688 283 -720 39 -44 71 -40 243 28 88 34 185 75 217 91 219 109
278 347 150 601 -44 88 -126 175 -199 212 -44 22 -72 29 -133 31 -42 2 -94 -1
-116 -7z m190 -150 c58 -27 100 -76 143 -167 40 -85 54 -191 32 -257 -15 -47
-72 -111 -120 -135 -42 -21 -313 -131 -315 -127 -4 5 -225 565 -225 570 0 4
243 103 320 130 37 13 122 6 165 -14z"/>
<path d="M8465 9330 c-665 -264 -1225 -487 -1243 -496 -46 -25 -76 -77 -75
-133 1 -36 170 -470 770 -1980 738 -1858 769 -1935 806 -1964 30 -25 46 -31
85 -30 37 1 296 100 1262 483 668 265 1229 489 1245 498 42 25 78 97 70 144
-6 43 -302 792 -328 832 -21 31 -86 66 -123 66 -15 0 -243 -86 -508 -191 -811
-322 -908 -360 -914 -354 -7 7 -202 498 -199 501 1 1 175 70 386 153 211 84
397 159 413 167 42 22 68 70 68 128 0 39 -29 123 -157 443 -157 396 -177 433
-231 454 -55 21 -99 8 -487 -146 -215 -85 -396 -155 -401 -155 -8 0 -196 461
-190 468 2 1 306 123 677 270 371 147 690 277 710 290 47 29 73 82 67 136 -6
47 -301 796 -330 839 -26 37 -68 57 -120 57 -33 -1 -335 -116 -1253 -480z
m1419 -48 c81 -206 146 -378 144 -384 -2 -6 -69 -36 -148 -68 -1333 -529
-1285 -509 -1303 -539 -9 -16 -17 -40 -17 -53 1 -34 223 -587 247 -614 40 -45
72 -36 508 136 222 88 410 160 418 160 16 0 320 -761 309 -772 -4 -4 -191 -80
-417 -169 -431 -171 -465 -189 -465 -245 0 -40 239 -634 266 -661 15 -15 35
-23 58 -23 22 0 292 102 742 280 389 155 711 277 715 273 18 -18 309 -767 301
-775 -17 -17 -2427 -966 -2435 -958 -14 13 -1528 3833 -1521 3839 3 3 551 222
1217 487 877 348 1215 478 1223 470 6 -6 77 -179 158 -384z"/>
<path d="M6340 8486 c-267 -106 -499 -200 -517 -209 -42 -22 -73 -75 -73 -125
0 -23 79 -404 175 -848 97 -444 174 -811 173 -815 -2 -5 -201 307 -442 694
-242 386 -451 715 -465 730 -35 39 -73 57 -116 57 -38 0 -828 -308 -876 -341
-33 -23 -59 -76 -59 -121 0 -18 79 -395 175 -838 97 -443 174 -810 173 -816
-2 -6 -183 277 -403 629 -220 352 -426 679 -457 727 -62 95 -96 120 -164 120
-25 0 -202 -65 -543 -200 -572 -226 -571 -226 -571 -318 0 -26 8 -63 18 -82
36 -70 2497 -3482 2527 -3503 62 -45 91 -37 540 142 455 181 470 188 504 225
49 52 48 55 -168 971 -110 467 -198 851 -197 853 2 1 207 -331 457 -740 249
-409 469 -760 490 -780 37 -38 57 -44 123 -39 16 2 233 83 481 182 506 201
505 200 513 291 5 69 -629 4192 -656 4258 -21 54 -70 90 -121 90 -23 0 -214
-71 -521 -194z m525 22 c40 -228 635 -4121 633 -4142 -3 -28 -11 -32 -442
-203 -241 -95 -440 -172 -442 -170 -2 1 -249 405 -549 897 -300 492 -555 903
-567 913 -51 43 -138 3 -138 -64 0 -17 106 -481 235 -1030 129 -550 235 -1006
235 -1014 0 -8 -8 -18 -17 -23 -10 -5 -202 -82 -427 -172 -395 -157 -409 -161
-426 -143 -31 33 -2470 3431 -2470 3442 0 12 957 393 977 389 8 -2 254 -385
546 -853 406 -648 539 -853 560 -863 22 -10 35 -11 62 -2 42 14 59 41 57 91
-1 20 -94 462 -207 980 -113 519 -205 951 -205 961 0 13 91 53 383 169 210 84
391 154 402 156 17 4 101 -125 544 -834 288 -461 533 -848 544 -860 27 -30 69
-38 105 -19 34 18 42 33 42 83 0 20 -92 461 -205 979 -113 519 -205 952 -205
962 0 17 72 48 448 197 246 98 461 183 477 191 43 18 43 17 50 -18z"/>
<path d="M13617 6359 c-189 -21 -399 -85 -597 -180 -434 -209 -679 -519 -680
-862 0 -215 102 -456 251 -591 77 -69 179 -119 311 -154 97 -25 117 -26 330
-27 126 0 228 -1 228 -2 0 -1 -134 -55 -297 -119 -335 -133 -366 -151 -366
-221 0 -86 112 -271 232 -385 168 -160 380 -240 636 -240 214 -1 417 48 644
154 273 127 476 316 580 540 61 130 75 193 74 343 0 157 -24 251 -105 415 -45
92 -63 116 -142 195 -159 158 -305 214 -611 233 l-110 7 264 104 c145 58 273
113 286 123 31 24 49 71 43 116 -8 57 -83 203 -143 275 -177 215 -482 317
-828 276z m357 -139 c202 -45 357 -159 444 -327 23 -44 42 -87 42 -95 0 -8
-129 -64 -347 -151 l-348 -138 -15 23 c-78 122 -261 141 -410 42 -112 -74
-119 -220 -14 -282 37 -22 46 -23 164 -18 69 3 177 15 240 26 70 13 182 23
285 26 147 5 183 3 270 -15 226 -46 384 -170 480 -374 48 -100 66 -175 72
-293 20 -380 -268 -705 -774 -874 -306 -101 -563 -93 -793 26 -86 45 -157 104
-224 188 -49 62 -116 179 -116 203 0 5 151 69 336 142 333 132 353 137 354 99
0 -16 56 -71 91 -88 112 -58 306 15 360 135 24 51 23 99 0 151 -25 54 -60 80
-129 95 -64 13 -128 8 -357 -27 -217 -33 -410 -41 -542 -20 -123 19 -241 56
-306 98 -69 44 -147 135 -190 221 -151 307 -89 600 180 847 192 176 520 329
826 385 114 20 316 18 421 -5z m-358 -725 c20 -13 51 -71 43 -79 -2 -3 -58
-10 -125 -16 -121 -13 -164 -7 -164 21 0 18 57 65 92 76 49 16 130 15 154 -2z
m325 -905 c23 -13 25 -52 4 -84 -17 -26 -100 -66 -135 -66 -33 0 -58 18 -76
53 -9 18 -28 44 -42 59 l-25 27 24 5 c78 17 222 20 250 6z"/>
<path d="M11427 5469 c-152 -16 -374 -90 -708 -233 -41 -17 -86 -65 -95 -102
-9 -36 3 -73 125 -379 140 -347 138 -343 175 -366 42 -26 85 -24 159 7 102 42
147 33 182 -36 20 -39 316 -792 313 -795 -2 -2 -67 -29 -146 -60 -229 -92
-229 -92 -83 -460 57 -143 112 -274 122 -291 42 -69 102 -70 271 -4 70 27 132
50 137 50 4 0 50 -107 101 -237 51 -131 101 -252 112 -270 25 -42 92 -69 139
-55 58 17 717 280 743 297 13 9 32 34 40 56 21 52 19 60 -99 355 -80 202 -91
236 -77 241 189 68 230 102 219 187 -8 68 -207 556 -242 594 -46 50 -82 51
-195 8 -51 -20 -97 -33 -100 -29 -4 5 -27 58 -50 118 -183 473 -419 1053 -453
1114 -129 229 -315 321 -590 290z m288 -155 c78 -39 160 -131 212 -236 22 -46
140 -334 262 -640 121 -307 227 -571 236 -588 32 -61 66 -62 210 -4 48 19 91
32 96 27 4 -4 48 -111 98 -238 51 -126 96 -240 101 -252 8 -20 2 -24 -97 -64
-118 -47 -143 -68 -143 -116 0 -19 46 -148 106 -298 59 -146 105 -267 103
-269 -6 -6 -690 -276 -697 -276 -4 0 -54 120 -112 266 -58 146 -115 277 -127
290 -14 15 -33 24 -52 24 -17 0 -99 -27 -182 -60 -83 -34 -153 -60 -154 -58
-14 13 -204 513 -198 519 4 4 67 31 138 59 72 29 142 59 157 68 33 19 52 62
43 94 -4 13 -81 211 -172 441 -105 265 -177 434 -197 460 -39 53 -105 87 -166
87 -25 -1 -77 -13 -118 -30 l-73 -28 -9 21 c-4 12 -58 148 -119 302 -61 154
-111 284 -111 288 0 10 67 40 260 117 244 97 389 131 547 126 88 -2 108 -6
158 -32z"/>
<path d="M9985 4950 c-169 -27 -372 -109 -498 -202 -69 -51 -157 -149 -180
-200 -15 -34 -20 -35 -36 -5 -18 33 -63 57 -106 57 -42 0 -786 -290 -819 -319
-31 -27 -49 -72 -43 -110 4 -34 618 -1593 659 -1676 155 -308 520 -476 953
-437 453 41 887 273 1117 597 53 74 104 183 134 282 23 75 27 108 28 223 1
167 -26 283 -76 325 -51 43 -85 36 -502 -96 -209 -67 -393 -128 -408 -135 -37
-19 -55 -48 -68 -112 -15 -67 -54 -107 -126 -128 -51 -15 -57 -14 -91 3 -43
21 -70 56 -78 98 l-6 30 163 64 c407 160 643 316 772 510 75 113 91 172 91
341 -1 120 -5 158 -23 223 -108 367 -295 592 -543 652 -81 19 -236 27 -314 15z
m273 -135 c80 -19 145 -52 205 -105 127 -112 246 -355 278 -568 26 -174 -25
-326 -155 -455 -133 -133 -297 -227 -635 -363 -113 -45 -215 -92 -228 -104
-31 -30 -30 -72 7 -161 64 -158 191 -216 346 -158 61 23 136 85 160 132 9 16
19 47 22 70 l8 42 384 122 c212 68 386 123 387 123 10 0 33 -159 33 -228 0
-416 -383 -800 -940 -942 -119 -30 -204 -41 -330 -41 -174 0 -301 27 -434 94
-133 66 -219 150 -284 275 -37 71 -652 1609 -652 1630 0 5 161 73 358 152 196
78 362 144 368 146 6 3 23 -28 39 -68 33 -87 58 -118 96 -118 40 0 75 37 89
95 27 118 119 230 251 308 79 46 223 103 309 121 86 19 240 19 318 1z"/>
<path d="M9612 4125 c-111 -56 -180 -154 -182 -258 0 -52 49 -194 79 -223 35
-35 74 -31 206 22 128 51 191 98 224 167 47 97 12 229 -77 292 -35 24 -55 30
-110 33 -61 3 -74 0 -140 -33z m195 -120 c31 -35 39 -89 19 -119 -24 -37 -74
-71 -146 -99 -92 -36 -91 -36 -105 3 -38 101 -1 180 105 230 54 25 96 20 127
-15z"/>
<path d="M7640 4005 c-430 -173 -440 -179 -440 -260 0 -35 52 -177 240 -650
267 -672 263 -658 215 -760 -44 -91 -135 -151 -294 -194 -157 -41 -160 -52
-87 -366 30 -131 54 -241 52 -242 -1 -2 -19 40 -40 92 -45 114 -66 141 -114
154 -43 12 -80 5 -175 -34 -37 -15 -69 -26 -71 -24 -2 2 -81 200 -176 439
-324 820 -333 839 -440 948 -103 105 -199 142 -367 142 -140 0 -260 -23 -439
-84 -137 -46 -380 -147 -421 -173 -32 -21 -53 -64 -53 -109 0 -52 242 -659
277 -696 46 -48 92 -48 222 0 63 23 100 16 126 -24 9 -14 86 -201 172 -417 85
-216 157 -395 158 -398 2 -3 -62 -32 -143 -65 -162 -65 -192 -91 -192 -162 0
-47 213 -582 243 -610 35 -32 74 -44 114 -33 19 6 89 31 154 57 72 29 123 44
128 38 5 -5 52 -120 105 -255 59 -150 106 -255 120 -268 29 -27 81 -43 115
-34 33 8 692 268 732 289 38 19 69 70 69 111 0 18 -45 145 -100 283 -55 138
-100 252 -100 254 0 2 40 20 90 40 88 37 140 79 140 113 0 11 5 13 18 8 36
-16 148 -17 215 -1 113 27 213 81 292 161 39 38 79 89 89 112 l19 43 34 -30
c41 -37 73 -45 121 -33 48 13 739 290 774 311 31 18 58 67 58 105 0 21 -858
2202 -907 2305 -20 43 -67 72 -113 72 -21 -1 -188 -62 -420 -155z m869 -1096
c264 -665 440 -1124 435 -1129 -8 -8 -676 -276 -715 -287 -12 -3 -22 11 -39
54 -30 74 -55 103 -92 103 -49 0 -66 -17 -84 -78 -24 -83 -59 -148 -110 -202
-77 -82 -222 -144 -326 -138 l-52 3 -88 384 c-49 211 -87 386 -85 388 2 2 37
13 78 24 78 21 208 86 247 122 45 42 99 136 117 202 16 57 17 78 8 130 -6 37
-101 290 -241 644 -127 320 -233 589 -234 598 -2 14 70 46 352 159 195 78 362
142 370 143 11 1 139 -313 459 -1120z m-2414 195 c66 -23 178 -134 225 -224
19 -36 141 -332 271 -659 138 -348 246 -604 259 -618 30 -32 53 -29 175 18 59
23 108 39 110 37 14 -14 204 -512 198 -518 -4 -4 -52 -25 -106 -46 -102 -39
-137 -67 -137 -109 0 -12 47 -141 105 -286 58 -145 105 -269 105 -275 0 -14
-690 -289 -699 -278 -5 5 -54 126 -111 269 -56 143 -111 270 -123 282 -31 35
-68 29 -232 -37 -82 -33 -152 -57 -156 -53 -14 14 -207 513 -200 517 3 2 67
28 141 56 165 64 200 88 200 135 0 21 -67 202 -170 463 -182 458 -199 491
-281 532 -53 27 -105 25 -197 -9 l-80 -29 -118 302 c-66 165 -119 305 -119
310 0 13 309 140 443 182 62 20 145 42 185 50 92 17 246 12 312 -12z"/>
</g>
</svg>
