<?xml version="1.0" standalone="no"?>
<!DOCTYPE svg PUBLIC "-//W3C//DTD SVG 20010904//EN"
 "http://www.w3.org/TR/2001/REC-SVG-20010904/DTD/svg10.dtd">
<svg version="1.0" xmlns="http://www.w3.org/2000/svg"
 width="1920.000000pt" height="1080.000000pt" viewBox="0 0 1920.000000 1080.000000"
 preserveAspectRatio="xMidYMid meet">

<g transform="translate(0.000000,1080.000000) scale(0.100000,-0.100000)"
fill="#333333" stroke="none">
<path d="M13862 9677 c-54 -50 -190 -182 -304 -291 -144 -137 -208 -205 -208
-220 0 -25 147 -176 172 -176 21 0 628 579 628 599 -1 21 -157 181 -176 181
-9 0 -59 -42 -112 -93z m91 -226 c-81 -79 -213 -205 -292 -279 l-143 -137 -59
65 c-32 36 -57 68 -56 72 1 3 130 128 286 277 l285 272 64 -63 64 -63 -149
-144z"/>
<path d="M4765 9721 c-50 -13 -90 -38 -129 -81 -40 -44 -56 -77 -56 -114 0
-18 -7 -25 -27 -29 -20 -4 -48 -31 -93 -88 -109 -136 -104 -128 -92 -153 16
-36 579 -486 607 -486 19 0 44 25 110 107 57 71 85 113 83 127 -2 13 -67 73
-175 161 -216 175 -220 179 -204 199 20 24 9 32 304 -206 59 -49 117 -88 127
-88 29 0 190 197 190 232 0 24 -29 51 -212 199 -117 95 -235 182 -263 195 -57
26 -127 36 -170 25z m140 -75 c51 -24 440 -331 440 -347 0 -6 -29 -45 -64 -89
l-64 -80 -36 30 c-334 270 -335 270 -370 270 -74 0 -106 -78 -56 -138 13 -16
98 -89 189 -162 l165 -133 -66 -81 c-36 -44 -69 -81 -73 -81 -12 0 -540 429
-540 439 0 4 30 44 66 87 64 77 67 79 86 62 31 -28 54 -6 51 51 -6 100 83 195
182 196 22 0 63 -11 90 -24z"/>
<path d="M13785 9190 c-157 -149 -221 -217 -223 -235 -3 -20 13 -41 75 -105
43 -44 84 -80 91 -80 7 0 79 63 160 140 138 132 182 161 182 124 0 -9 -65 -79
-145 -156 -86 -83 -145 -148 -145 -159 0 -23 146 -179 168 -179 18 0 63 40
218 191 66 66 124 119 127 119 4 0 7 -5 7 -12 0 -6 7 -19 15 -28 14 -15 3 -28
-110 -138 -144 -141 -160 -170 -131 -245 22 -58 119 -175 152 -183 22 -6 35 3
95 62 38 38 69 74 69 82 0 7 -8 24 -17 38 l-17 26 77 75 77 75 35 -31 c20 -17
38 -31 41 -31 14 0 134 125 134 139 0 8 -12 28 -27 43 l-28 29 53 48 c28 26
52 54 52 62 0 8 -35 51 -78 96 -89 95 -95 96 -162 28 l-43 -44 -25 20 c-14 10
-29 19 -34 19 -4 0 -28 -18 -51 -40 l-44 -39 15 57 c21 80 5 132 -58 194 -27
28 -56 48 -69 48 -14 0 -21 6 -21 20 0 28 -147 180 -174 180 -13 0 -99 -75
-241 -210z m303 98 c54 -56 59 -65 46 -79 -23 -26 -7 -49 35 -49 49 0 96 -31
121 -79 28 -57 26 -108 -8 -162 -26 -40 -330 -337 -335 -328 -1 3 -29 33 -62
67 l-59 62 138 132 c76 72 142 142 147 155 18 49 -27 101 -77 89 -13 -4 -85
-65 -160 -136 -75 -72 -139 -130 -143 -130 -3 0 -33 27 -66 61 l-60 60 205
199 c113 110 208 199 212 200 3 0 33 -28 66 -62z m575 -366 l57 -58 -50 -49
c-27 -27 -50 -56 -50 -64 0 -8 12 -28 27 -43 l27 -28 -39 -40 c-22 -22 -44
-40 -50 -40 -6 0 -22 11 -35 25 -13 14 -31 25 -39 25 -16 0 -174 -150 -192
-183 -7 -12 -6 -27 6 -50 l16 -32 -52 -48 -52 -48 -34 33 c-55 53 -93 117 -93
157 0 33 11 47 135 167 74 72 135 137 135 144 0 8 -8 22 -17 32 -16 18 -15 21
22 58 42 43 56 48 75 25 19 -23 34 -18 87 30 26 24 50 44 53 45 3 0 31 -26 63
-58z"/>
<path d="M4225 9118 c-51 -62 -85 -112 -85 -126 0 -14 -8 -26 -23 -31 -38 -15
-86 -60 -115 -110 -23 -39 -27 -57 -27 -121 0 -53 6 -85 19 -110 36 -68 102
-144 181 -208 191 -154 334 -178 455 -75 44 37 41 25 -8 -29 -13 -14 -22 -34
-20 -44 3 -18 181 -174 199 -174 20 0 111 95 159 166 57 86 80 157 80 246 0
84 -20 141 -73 205 -57 71 -604 513 -634 513 -16 0 -46 -28 -108 -102z m365
-161 c129 -104 258 -212 287 -240 59 -57 98 -124 108 -184 14 -89 -41 -223
-136 -327 l-46 -51 -48 40 c-26 22 -57 47 -68 57 -21 16 -21 16 16 62 45 54
67 103 67 148 0 36 -31 95 -55 104 -23 9 -45 -15 -45 -48 0 -64 -64 -144 -140
-176 -76 -32 -188 9 -323 118 -118 95 -177 185 -177 271 0 90 65 173 145 186
48 8 62 26 42 56 -15 23 -13 27 51 105 36 46 70 78 76 75 6 -4 117 -92 246
-196z"/>
<path d="M4300 8837 c-34 -17 -55 -57 -46 -91 16 -66 165 -187 232 -189 45 -1
84 38 84 84 0 36 -65 110 -143 162 -62 42 -94 50 -127 34z m91 -78 c101 -72
143 -130 104 -145 -31 -12 -185 112 -185 149 0 36 26 35 81 -4z"/>
<path d="M3579 8790 c-44 -13 -74 -38 -99 -82 -43 -77 -25 -160 47 -215 32
-24 45 -28 104 -28 59 0 66 -2 55 -15 -22 -26 -25 -47 -10 -68 8 -11 90 -82
184 -158 93 -75 169 -139 167 -141 -2 -1 -19 2 -38 7 -40 12 -97 5 -157 -21
-47 -21 -47 -17 6 48 41 51 38 78 -10 109 -83 53 -193 57 -284 11 -59 -30
-162 -136 -192 -199 -60 -122 -51 -234 25 -318 76 -85 164 -115 256 -87 26 8
47 13 47 10 0 -2 -16 -24 -35 -47 -41 -50 -44 -75 -12 -103 62 -57 169 -73
252 -38 103 44 224 173 265 283 28 72 25 190 -6 237 -23 35 -12 30 64 -32 53
-43 67 -49 88 -35 7 4 48 52 93 107 61 74 81 106 79 125 -2 19 -71 79 -298
262 -162 131 -300 238 -307 238 -6 0 -25 -12 -42 -26 l-31 -26 0 36 c0 77 -52
145 -128 166 -42 11 -47 11 -83 0z m99 -70 c62 -38 70 -114 18 -166 -26 -26
-42 -34 -71 -34 -74 0 -127 67 -106 133 26 77 95 106 159 67z m459 -366 c147
-119 267 -221 265 -227 -4 -14 -123 -157 -131 -157 -5 0 -508 405 -535 430 -8
8 112 170 126 170 4 0 128 -97 275 -216z m-369 -161 c41 -17 39 -22 -29 -107
-47 -59 -54 -64 -83 -59 -49 8 -96 -36 -96 -87 0 -40 26 -70 60 -70 9 0 60 31
114 70 156 111 237 125 316 54 97 -88 88 -209 -26 -354 -84 -108 -200 -166
-281 -142 -79 24 -80 28 -11 115 58 73 63 77 100 77 76 0 128 90 78 135 -27
25 -52 15 -150 -55 -76 -55 -155 -90 -202 -90 -30 0 -91 29 -121 58 -100 94
-86 235 37 369 92 102 189 130 294 86z m-115 -230 c4 -3 -2 -13 -14 -21 -24
-17 -37 -9 -19 13 14 16 23 19 33 8z m217 -198 c0 -2 -10 -10 -22 -16 -21 -11
-22 -11 -9 4 13 16 31 23 31 12z"/>
<path d="M14645 8548 c-76 -28 -212 -155 -256 -238 -33 -63 -33 -176 0 -239
33 -64 105 -136 164 -166 81 -40 231 -30 261 18 9 14 6 27 -13 60 l-24 42 35
-32 c19 -18 40 -33 47 -33 8 0 2 -13 -14 -31 -73 -88 -92 -196 -47 -274 l24
-40 -29 28 c-16 15 -35 27 -42 27 -22 0 -161 -130 -161 -150 0 -27 105 -137
173 -181 108 -70 220 -73 317 -9 78 51 480 440 480 464 0 23 -140 168 -172
179 -10 4 -18 16 -18 27 0 11 -17 38 -37 61 -80 89 -167 102 -279 44 -76 -40
-83 -42 -61 -17 49 54 64 169 34 257 -21 61 -92 146 -154 182 -37 21 -61 27
-122 30 -42 1 -89 -2 -106 -9z m192 -56 c122 -63 190 -209 148 -319 -17 -44
-107 -153 -126 -153 -4 0 -56 50 -115 110 -59 61 -113 110 -120 110 -20 0 -44
-41 -44 -77 0 -39 28 -71 71 -80 22 -4 40 -20 70 -64 21 -32 39 -62 39 -68 0
-11 -62 -31 -96 -31 -49 0 -117 34 -164 82 -123 125 -123 247 0 382 117 127
229 163 337 108z m-167 -354 c0 -13 -27 -9 -40 7 -19 23 -1 39 21 19 10 -9 19
-21 19 -26z m589 -71 c44 -26 71 -73 71 -121 0 -38 0 -39 34 -33 32 5 39 1 91
-54 50 -52 55 -62 43 -76 -7 -9 -104 -104 -216 -210 -230 -220 -274 -249 -365
-241 -29 3 -74 15 -100 28 -46 22 -178 140 -176 157 1 4 25 30 54 56 l53 48
42 -45 c51 -56 101 -74 153 -57 59 20 58 62 -2 74 -37 8 -85 49 -105 91 -38
80 -9 164 93 267 137 137 237 173 330 116z"/>
<path d="M14716 8329 c-14 -11 -26 -26 -26 -33 0 -6 21 -32 46 -56 l45 -45 25
28 c30 35 31 79 2 107 -28 26 -58 26 -92 -1z m70 -40 c3 -6 2 -15 -4 -21 -7
-7 -14 -3 -21 11 -10 17 -9 21 3 21 8 0 18 -5 22 -11z"/>
<path d="M15142 7889 c-48 -24 -129 -109 -138 -146 -14 -55 32 -94 92 -79 15
4 56 36 90 71 53 52 64 69 64 97 0 39 -7 51 -37 67 -27 14 -20 15 -71 -10z
m66 -47 c5 -17 -123 -145 -140 -140 -33 11 -18 46 43 102 59 55 87 66 97 38z"/>
<path d="M15355 7548 c-144 -139 -221 -220 -223 -235 -3 -18 15 -43 74 -103
43 -44 84 -80 92 -80 7 0 72 54 142 120 71 66 136 120 145 120 8 0 32 -16 54
-35 39 -36 68 -44 88 -24 7 7 9 4 6 -13 -3 -17 8 -39 39 -78 30 -37 37 -51 23
-46 -99 42 -144 40 -215 -9 -144 -100 -131 -278 27 -367 29 -16 50 -34 47 -39
-5 -8 117 -146 151 -171 24 -18 51 1 208 153 141 135 167 157 167 136 0 -13 7
-30 15 -37 13 -10 -5 -31 -114 -139 -115 -112 -130 -131 -136 -168 -9 -59 20
-118 98 -199 75 -77 70 -77 167 12 62 58 72 84 45 114 -21 23 -14 34 66 109
l69 65 28 -27 c16 -15 35 -27 43 -27 23 0 139 109 139 130 0 10 -11 32 -25 48
l-24 29 49 48 c28 27 50 56 50 63 0 20 -150 172 -169 172 -8 0 -36 -21 -62
-46 -46 -45 -48 -46 -70 -30 -36 25 -49 20 -108 -36 -30 -30 -51 -44 -46 -33
43 113 18 214 -80 323 -90 99 -235 143 -325 97 -44 -22 -40 -18 38 39 34 25
62 53 62 61 0 44 -63 115 -101 115 -11 0 -19 7 -19 16 0 26 -149 184 -174 184
-14 -1 -98 -75 -241 -212z m355 28 c-6 -6 -10 -20 -10 -33 0 -20 5 -23 40 -23
29 0 48 -7 71 -28 18 -16 29 -34 25 -40 -3 -6 -36 -31 -72 -57 l-66 -46 -34
31 c-28 24 -44 30 -80 30 -45 0 -48 -2 -164 -116 l-119 -116 -58 62 c-32 34
-59 66 -61 70 -1 4 91 95 205 204 l207 197 63 -63 c41 -41 59 -66 53 -72z
m266 -281 c70 -35 132 -99 167 -173 25 -53 29 -72 24 -112 -3 -27 -13 -59 -21
-72 -8 -13 -83 -88 -166 -167 l-151 -144 -50 49 c-61 59 -75 82 -60 97 6 6 11
19 11 29 0 13 -8 18 -29 18 -95 0 -193 107 -177 193 12 65 105 147 166 147 39
0 93 -33 166 -102 39 -38 75 -68 80 -68 4 0 18 10 31 22 47 44 17 127 -46 129
-20 0 -40 18 -84 71 -53 65 -56 72 -40 83 45 31 116 31 179 0z m-36 -210 c19
-23 1 -39 -21 -19 -10 9 -19 21 -19 26 0 13 27 9 40 -7z m604 -127 l55 -63
-45 -38 c-66 -58 -70 -70 -35 -110 l30 -34 -42 -41 -43 -42 -29 30 c-16 16
-34 30 -40 30 -19 0 -186 -161 -196 -188 -7 -18 -5 -31 7 -50 16 -24 15 -25
-32 -73 -27 -27 -53 -49 -60 -49 -14 0 -85 84 -107 127 -22 41 -21 72 1 103 9
14 71 78 137 142 l120 117 -18 32 -18 33 40 40 40 40 24 -22 c13 -12 28 -22
33 -22 5 0 32 23 59 50 27 28 52 50 56 50 4 0 32 -28 63 -62z"/>
<path d="M15720 6980 c-26 -26 -25 -62 3 -87 33 -30 54 -34 92 -19 51 22 55
53 11 93 -41 38 -77 42 -106 13z m80 -55 c0 -17 -18 -19 -39 -6 -8 5 -11 16
-8 25 5 14 11 15 27 6 11 -6 20 -17 20 -25z"/>
<path d="M3117 7686 c-76 -32 -136 -83 -186 -157 -49 -73 -64 -122 -63 -211 0
-97 33 -163 126 -252 161 -156 312 -207 453 -154 44 16 75 38 131 93 97 97
126 160 126 270 0 69 -4 88 -29 140 -38 76 -65 83 -128 33 l-42 -33 23 32 c13
18 27 35 32 38 6 4 10 19 10 34 0 22 -13 38 -63 79 -101 82 -155 105 -250 109
-69 3 -91 0 -140 -21z m213 -48 c41 -12 126 -67 157 -100 l22 -23 -106 -130
c-129 -159 -135 -168 -127 -188 8 -22 74 -46 107 -40 40 8 77 57 77 103 0 35
6 43 72 99 39 33 74 58 79 56 14 -9 39 -99 39 -141 0 -68 -34 -144 -95 -212
-107 -118 -213 -142 -348 -78 -132 62 -252 182 -278 280 -42 156 100 358 270
386 48 7 73 5 131 -12z m70 -377 c0 -20 -25 -51 -41 -51 -15 0 -11 15 12 44
24 31 29 32 29 7z"/>
<path d="M3149 7421 c-18 -18 -29 -40 -29 -57 0 -33 44 -94 69 -94 21 0 101
98 101 123 0 23 -48 57 -82 57 -19 0 -40 -10 -59 -29z m71 -40 c0 -12 -29 -35
-36 -28 -11 10 5 37 21 37 8 0 15 -4 15 -9z"/>
<path d="M2529 7280 c-59 -10 -128 -40 -176 -77 -50 -38 -303 -350 -303 -374
0 -10 8 -27 18 -36 66 -66 778 -629 796 -631 20 -3 45 24 155 160 73 90 143
186 157 215 57 116 54 247 -9 340 -41 61 -370 332 -452 372 -69 34 -120 43
-186 31z m168 -85 c27 -14 127 -90 223 -169 216 -176 235 -202 235 -320 0
-108 -22 -151 -171 -336 -64 -80 -117 -146 -118 -147 -1 -2 -172 135 -379 303
l-377 305 123 152 c73 89 143 165 171 184 99 68 203 78 293 28z"/>
<path d="M2448 6960 c-47 -49 -55 -65 -40 -85 20 -30 434 -355 451 -355 31 0
91 90 91 137 0 56 -27 87 -180 210 -181 145 -178 143 -229 143 -41 0 -49 -5
-93 -50z m273 -128 c78 -65 151 -129 162 -144 19 -26 19 -27 1 -59 -11 -18
-24 -34 -29 -36 -8 -2 -333 253 -379 298 -21 19 50 71 85 62 9 -3 81 -57 160
-121z"/>
<path d="M16525 6588 c-82 -31 -220 -163 -260 -250 -52 -111 -26 -224 75 -326
88 -90 178 -115 293 -83 63 18 75 41 47 86 -25 41 -21 45 14 10 14 -14 33 -25
43 -25 21 0 134 114 159 161 29 53 26 189 -4 251 -28 56 -89 120 -150 155 -50
30 -165 41 -217 21z m154 -45 c107 -34 194 -148 194 -253 0 -72 -27 -130 -91
-193 l-49 -48 -108 115 c-60 64 -115 116 -122 116 -16 0 -53 -58 -53 -83 0
-27 54 -77 83 -77 19 0 34 -14 67 -65 50 -77 47 -86 -33 -93 -124 -10 -261
108 -283 245 -17 109 132 296 270 339 55 17 65 17 125 -3z m-144 -371 c-19 -4
-35 13 -35 37 0 10 8 7 26 -10 22 -20 23 -25 9 -27z"/>
<path d="M16598 6372 c-16 -9 -28 -24 -28 -33 0 -18 71 -99 88 -99 17 0 52 51
52 77 0 28 -41 73 -67 73 -10 0 -30 -8 -45 -18z m61 -58 c3 -16 1 -17 -13 -5
-19 16 -21 34 -3 29 6 -3 14 -13 16 -24z"/>
<path d="M2070 4828 c-167 -209 -276 -352 -278 -369 -3 -23 8 -36 93 -103 53
-42 100 -76 104 -76 14 0 40 27 129 138 50 62 94 113 98 114 3 0 22 -11 40
-26 l34 -27 -100 -122 c-59 -72 -100 -131 -100 -144 0 -15 22 -40 73 -80 85
-70 118 -93 131 -93 5 0 28 21 52 47 l43 46 -11 -41 c-6 -23 -7 -57 -4 -76 14
-75 104 -167 183 -189 23 -6 39 -15 36 -20 -6 -10 53 -67 136 -129 52 -39 66
-46 82 -37 25 13 288 337 317 390 61 115 -1 274 -146 373 -87 59 -171 82 -245
66 -64 -13 -125 -54 -134 -89 -5 -22 2 -33 53 -78 32 -29 56 -53 53 -53 -3 0
-27 7 -53 16 -58 20 -118 14 -158 -16 -15 -11 -28 -18 -28 -15 0 3 90 117 200
254 140 173 200 255 200 272 0 20 -20 42 -91 98 -61 49 -97 71 -112 69 -14 -2
-56 -45 -115 -118 -51 -63 -98 -116 -105 -117 -20 -4 -70 46 -60 60 6 7 49 61
96 121 53 65 87 117 87 131 0 30 -166 165 -201 165 -19 0 -78 -68 -299 -342z
m428 191 l24 -18 -102 -126 c-56 -69 -100 -133 -98 -142 5 -24 127 -115 143
-106 7 5 54 60 105 123 50 63 96 117 101 118 5 2 41 -22 80 -53 48 -39 67 -60
61 -68 -18 -24 -505 -632 -513 -641 -10 -11 -161 102 -154 114 3 5 50 64 105
132 55 67 100 127 100 131 0 24 -133 123 -150 112 -5 -3 -56 -62 -111 -131
-64 -79 -104 -122 -112 -117 -33 19 -132 108 -129 115 1 5 119 155 263 334
l260 325 52 -42 c29 -23 62 -49 75 -60z m397 -620 c114 -54 205 -176 205 -274
0 -60 -2 -63 -182 -288 -77 -95 -123 -145 -131 -140 -26 15 -137 107 -137 113
0 3 5 11 11 17 6 6 9 19 7 29 -3 16 -13 19 -59 19 -45 0 -64 6 -97 29 -49 33
-81 81 -89 130 -7 43 36 127 84 163 70 53 143 38 265 -56 75 -57 98 -62 122
-26 36 55 0 127 -64 127 -29 0 -47 12 -105 64 -64 58 -69 65 -54 79 47 47 141
53 224 14z m-35 -234 c0 -19 -10 -19 -39 1 -17 13 -20 19 -10 25 17 10 49 -7
49 -26z"/>
<path d="M2637 4052 c-27 -30 -22 -77 12 -101 41 -30 82 -27 114 7 36 38 34
54 -11 86 -44 30 -92 34 -115 8z m82 -46 c8 -10 9 -16 1 -21 -16 -10 -50 4
-50 21 0 18 34 18 49 0z"/>
<path d="M16445 4317 c-109 -36 -203 -111 -245 -194 -32 -64 -39 -177 -15
-259 46 -161 169 -323 269 -357 178 -61 434 55 490 221 22 62 21 175 0 197
-10 9 -26 14 -38 11 -77 -18 -81 -17 -33 9 39 21 47 30 47 54 0 41 -73 182
-120 229 -64 67 -130 95 -230 99 -52 2 -100 -2 -125 -10z m227 -69 c26 -11 66
-40 88 -64 38 -41 109 -168 99 -178 -2 -2 -80 -40 -174 -83 -191 -88 -201 -99
-146 -153 41 -42 100 -42 142 -1 16 16 29 36 29 44 0 10 27 21 85 36 121 30
119 31 111 -30 -14 -107 -69 -178 -178 -231 -194 -95 -333 -37 -442 182 -62
126 -76 203 -51 283 24 76 79 138 159 177 106 52 184 57 278 18z m-22 -423 c0
-21 -36 -38 -57 -27 -14 8 -12 12 13 25 37 20 44 21 44 2z"/>
<path d="M16485 4079 c-11 -6 -26 -19 -32 -27 -19 -23 -16 -97 3 -117 18 -18
35 -14 107 21 37 19 47 30 47 49 0 54 -78 100 -125 74z m55 -59 c0 -12 -35
-31 -44 -23 -8 9 14 33 30 33 8 0 14 -4 14 -10z"/>
<path d="M15725 4194 c-148 -68 -154 -77 -111 -162 40 -79 41 -90 11 -104 -40
-18 -41 -47 -1 -132 l35 -77 -31 26 c-96 81 -261 85 -410 9 -74 -37 -161 -124
-189 -187 -37 -87 -26 -217 21 -232 9 -3 52 8 94 24 42 16 76 25 76 20 0 -4
-9 -13 -21 -19 -11 -6 -34 -32 -50 -58 -50 -80 -36 -195 36 -294 49 -67 101
-91 184 -86 79 4 170 45 209 94 21 26 31 31 56 28 23 -3 61 11 146 54 97 48
115 61 118 82 2 16 -38 113 -103 255 -59 127 -109 235 -111 240 -2 6 6 11 18
11 13 1 32 5 44 9 18 6 28 -10 95 -156 81 -179 114 -231 158 -254 64 -32 189
-11 306 53 68 37 69 59 8 182 -41 81 -52 95 -75 98 -15 2 -36 -2 -48 -8 -19
-10 -24 -4 -76 107 -60 128 -61 119 5 155 41 23 40 44 -12 148 -47 95 -67 106
-127 75 -18 -9 -33 -15 -34 -13 -1 2 -15 32 -31 67 -34 72 -49 91 -73 91 -9 0
-62 -21 -117 -46z m200 -178 c9 -3 34 4 57 15 22 11 44 17 48 12 5 -4 20 -34
34 -66 l25 -58 -44 -21 c-24 -12 -47 -28 -50 -36 -7 -18 110 -274 136 -298 14
-12 29 -15 60 -11 l41 5 34 -73 c19 -41 34 -76 34 -80 0 -12 -127 -65 -182
-77 -89 -19 -109 -2 -185 157 -146 304 -136 290 -201 270 -20 -7 -25 -1 -51
56 l-29 64 34 18 c19 9 34 24 34 32 0 7 -16 49 -35 92 -20 43 -32 79 -28 80 4
2 46 21 93 43 l85 40 37 -79 c20 -43 44 -81 53 -85z m-378 -290 c28 -14 58
-35 67 -48 15 -23 226 -475 226 -484 0 -5 -192 -95 -195 -92 -1 2 -8 13 -14
26 -17 33 -52 25 -64 -13 -17 -52 -46 -83 -103 -110 -65 -31 -136 -35 -183
-11 -40 21 -87 96 -102 163 -11 46 -10 56 9 95 27 54 67 86 182 143 50 26 94
53 97 61 8 20 -16 72 -41 89 -43 31 -114 8 -135 -44 -11 -24 -27 -35 -107 -65
-51 -20 -98 -36 -103 -36 -29 0 -27 82 3 145 74 157 314 250 463 181z m-147
-240 c0 -8 -13 -19 -30 -25 -32 -11 -42 3 -18 27 16 16 48 15 48 -2z"/>
<path d="M15465 3331 c-22 -10 -49 -28 -59 -40 -27 -30 -23 -81 9 -108 38 -33
71 -29 112 12 32 32 35 40 30 76 -5 36 -30 79 -46 79 -3 0 -24 -9 -46 -19z
m33 -72 c-4 -30 -33 -48 -50 -31 -11 11 -9 17 11 33 30 25 43 24 39 -2z"/>
<path d="M3247 4128 c-51 -47 -407 -500 -407 -518 0 -25 182 -173 206 -168 17
3 43 31 184 204 77 93 100 101 153 55 19 -17 42 -31 51 -31 10 0 42 23 72 51
30 29 54 49 54 45 0 -4 -79 -105 -175 -224 -96 -119 -175 -224 -175 -234 0
-22 180 -168 207 -168 13 0 61 53 147 160 151 188 152 189 172 168 14 -14 1
-33 -120 -186 -75 -93 -136 -179 -136 -190 0 -13 29 -44 88 -89 105 -84 106
-85 126 -77 9 3 75 80 147 170 87 109 137 164 150 164 10 0 19 -6 19 -14 0 -7
-59 -87 -131 -177 -72 -90 -133 -169 -136 -176 -3 -6 -1 -18 4 -26 11 -21 183
-157 197 -157 20 0 39 20 145 153 56 70 104 127 106 127 3 0 -12 -21 -32 -47
-121 -159 -116 -310 16 -436 171 -163 341 -151 499 36 84 98 114 158 120 237
7 101 -16 160 -94 238 -81 81 -152 115 -243 115 -83 1 -141 -24 -212 -90 l-53
-48 42 55 c105 141 108 243 10 337 -43 41 -96 63 -153 63 -42 0 -45 2 -45 26
0 67 -78 155 -155 176 -31 8 -45 17 -45 29 0 28 -189 177 -208 165 -6 -3 -13
5 -16 18 -9 37 -81 96 -116 96 -23 0 -30 5 -30 19 0 13 -34 46 -96 95 -52 42
-99 76 -104 76 -5 0 -20 -10 -33 -22z m112 -97 c58 -46 68 -57 59 -71 -21 -32
-3 -50 50 -50 50 0 102 -27 102 -53 0 -11 -122 -127 -134 -127 -3 0 -22 11
-42 25 -48 33 -94 32 -133 0 -16 -14 -71 -77 -121 -140 -51 -63 -96 -115 -102
-115 -12 0 -131 98 -136 111 -5 12 370 480 380 477 4 -2 39 -27 77 -57z m376
-302 c55 -45 63 -55 54 -71 -18 -33 -4 -48 43 -48 81 0 167 -72 170 -141 2
-81 3 -82 66 -74 66 7 104 -4 145 -43 59 -56 71 -115 38 -187 -18 -40 -295
-395 -307 -395 -9 0 -144 109 -144 116 0 2 56 75 125 161 69 85 128 167 131
180 8 32 -13 72 -43 79 -50 13 -71 -4 -199 -164 -69 -86 -130 -157 -135 -157
-19 0 -148 109 -140 119 4 6 63 80 130 165 111 139 122 156 119 189 -2 24 -11
41 -29 55 -47 34 -71 16 -210 -153 -69 -85 -130 -155 -136 -157 -13 -5 -138
96 -138 111 0 21 369 475 382 471 7 -2 42 -28 78 -56z m827 -667 c59 -26 139
-101 166 -154 49 -99 22 -200 -88 -335 -131 -159 -276 -172 -421 -36 -69 64
-93 113 -93 188 -1 69 26 127 103 222 111 136 209 170 333 115z"/>
<path d="M4445 2892 c-29 -18 -101 -104 -124 -149 -18 -36 -13 -72 15 -100 39
-39 76 -27 145 47 91 97 107 152 59 200 -25 25 -56 25 -95 2z m71 -46 c13 -35
-108 -185 -139 -173 -28 11 -19 42 29 106 58 78 97 101 110 67z"/>
<path d="M14770 3534 c-69 -31 -131 -60 -137 -66 -18 -15 -16 -53 7 -128 30
-99 25 -102 -34 -14 -30 45 -62 84 -71 88 -10 3 -72 -19 -153 -57 -119 -55
-137 -66 -140 -88 -2 -20 42 -79 224 -295 265 -315 282 -334 305 -334 25 0
260 108 282 129 17 16 15 34 -44 397 -59 361 -74 424 -102 424 -6 0 -68 -25
-137 -56z m125 -36 c9 -39 115 -691 112 -693 -5 -4 -228 -105 -231 -105 -12 0
-467 553 -460 559 17 16 194 92 201 88 5 -3 51 -68 103 -146 52 -77 100 -142
107 -145 6 -2 19 1 29 8 17 13 15 23 -30 185 -27 95 -45 175 -42 179 8 8 186
90 198 91 4 1 10 -9 13 -21z"/>
<path d="M13925 3157 c-198 -74 -297 -237 -252 -412 9 -33 18 -69 22 -80 3
-11 -10 9 -29 45 -39 75 -99 139 -154 166 -82 40 -213 14 -275 -55 -26 -29
-41 -38 -59 -34 -31 6 -252 -98 -267 -126 -10 -18 10 -68 139 -348 83 -180
158 -338 166 -350 8 -13 23 -23 34 -23 36 0 252 104 262 126 8 17 -9 62 -91
241 -56 120 -101 226 -101 235 0 23 26 29 43 10 8 -9 57 -107 107 -217 92
-201 112 -235 136 -235 15 0 232 97 252 113 23 18 12 54 -73 237 -47 101 -84
184 -82 186 1 1 22 -35 45 -80 50 -98 107 -159 179 -193 132 -61 300 -26 430
92 134 120 141 277 21 508 -49 94 -111 160 -181 192 -70 33 -185 34 -272 2z
m248 -55 c84 -37 157 -142 211 -304 30 -89 32 -115 10 -187 -32 -109 -176
-208 -314 -219 -122 -9 -212 54 -284 196 -50 99 -76 183 -76 245 0 195 265
352 453 269z m-690 -276 c68 -29 100 -77 212 -319 59 -128 109 -237 111 -243
3 -6 -6 -15 -18 -21 -13 -6 -57 -27 -99 -46 l-76 -35 -94 205 c-52 113 -105
216 -118 229 -23 23 -62 31 -96 18 -25 -10 -47 -62 -40 -94 4 -16 46 -116 96
-222 49 -106 89 -197 89 -203 0 -13 -183 -96 -192 -87 -8 8 -274 583 -283 613
-6 17 6 25 87 63 l93 44 21 -26 c27 -32 48 -25 69 25 21 50 42 72 90 94 48 22
104 24 148 5z"/>
<path d="M14010 2933 c-94 -27 -98 -91 -18 -246 58 -111 112 -135 170 -77 27
27 30 36 26 75 -6 47 -71 196 -97 219 -22 20 -63 34 -81 29z m25 -59 c10 -4
35 -43 56 -87 51 -106 51 -159 0 -142 -18 5 -101 166 -101 196 0 8 5 20 12 27
14 14 12 14 33 6z"/>
<path d="M4705 2554 c-127 -159 -205 -265 -205 -278 0 -16 26 -43 90 -94 85
-68 112 -81 136 -64 5 4 57 66 114 137 56 72 116 144 133 162 29 31 57 34 57
8 0 -8 -59 -87 -131 -177 -72 -90 -134 -168 -136 -175 -3 -6 -1 -18 4 -26 11
-21 183 -157 197 -157 21 0 39 20 183 200 185 230 209 281 183 380 -15 59
-102 146 -154 156 -21 3 -36 12 -36 20 0 22 -177 164 -205 164 -20 0 -62 -47
-230 -256z m306 150 c38 -31 69 -58 69 -61 0 -2 -5 -13 -11 -24 -15 -30 6 -52
43 -44 78 18 178 -72 178 -160 0 -52 -39 -116 -172 -282 -76 -94 -143 -175
-148 -178 -10 -6 -150 98 -150 111 0 2 56 75 125 161 69 85 128 167 131 180
12 48 -36 94 -86 84 -24 -5 -47 -29 -172 -184 -105 -130 -122 -147 -136 -135
-9 7 -42 32 -72 57 -30 25 -56 46 -58 47 -4 3 380 484 385 484 2 0 35 -25 74
-56z"/>
<path d="M5574 2571 c-65 -40 -97 -111 -76 -170 l11 -30 -31 19 c-22 13 -37
16 -48 10 -10 -5 -108 -122 -219 -259 -135 -167 -201 -258 -201 -274 0 -17 22
-41 90 -95 49 -40 98 -72 107 -72 10 0 23 -10 28 -22 15 -34 385 -328 412
-328 26 0 153 150 153 181 0 20 -22 43 -87 92 -23 18 -43 35 -43 38 0 4 51 12
113 18 61 7 121 15 133 18 20 4 108 102 149 166 15 23 15 30 4 47 -19 26 -377
310 -391 310 -7 0 -23 -10 -36 -22 l-25 -23 17 27 c23 35 23 35 -10 69 l-28
29 43 0 c87 0 162 85 147 166 -18 95 -134 153 -212 105z m114 -47 c38 -26 55
-70 42 -109 -27 -82 -136 -91 -176 -14 -20 40 -11 82 28 114 34 29 73 32 106
9z m-167 -230 c38 -31 69 -59 69 -62 0 -2 -86 -112 -191 -243 -166 -207 -194
-238 -208 -227 -9 7 -41 32 -71 57 -30 25 -57 46 -59 47 -3 3 381 484 387 484
2 0 34 -25 73 -56z m334 -269 c91 -72 162 -136 160 -142 -2 -7 -27 -41 -55
-76 l-51 -64 -152 -17 c-161 -18 -193 -30 -166 -62 7 -9 46 -43 86 -76 l73
-59 -52 -64 c-29 -37 -56 -61 -62 -58 -31 19 -346 276 -346 283 0 6 86 119
106 139 2 2 59 12 126 22 196 29 188 27 188 52 0 16 -20 37 -65 72 -35 28 -64
54 -65 58 0 14 93 128 102 125 5 -2 83 -62 173 -133z m-255 121 c0 -2 -8 -10
-17 -17 -16 -13 -17 -12 -4 4 13 16 21 21 21 13z m-40 -50 c0 -2 -8 -10 -17
-17 -16 -13 -17 -12 -4 4 13 16 21 21 21 13z m-37 -60 c-4 -19 6 -32 51 -67
47 -36 53 -45 39 -51 -19 -8 -226 -39 -230 -35 -2 3 137 177 142 177 1 0 0
-11 -2 -24z"/>
<path d="M12687 2579 c-58 -14 -114 -46 -138 -79 -17 -22 -28 -28 -44 -24 -15
4 -63 -13 -136 -46 -132 -60 -139 -65 -139 -94 0 -11 71 -174 158 -361 186
-402 155 -375 332 -287 91 45 116 62 118 80 2 13 -40 116 -98 243 -69 149 -99
224 -92 231 28 28 47 0 144 -212 106 -228 112 -240 136 -240 31 0 244 104 259
127 14 21 8 37 -103 278 -123 269 -161 328 -233 364 -46 24 -115 32 -164 20z
m129 -68 c22 -10 54 -35 71 -55 39 -48 249 -504 237 -515 -5 -5 -49 -27 -97
-49 l-88 -41 -28 62 c-170 375 -184 397 -240 397 -16 0 -40 -9 -55 -21 -44
-35 -36 -72 60 -279 47 -102 90 -195 95 -208 8 -22 3 -26 -87 -68 -53 -24 -98
-43 -100 -42 -6 7 -284 614 -287 626 -1 8 35 30 92 57 l94 43 21 -25 c28 -33
48 -23 73 37 19 44 28 53 75 75 63 29 108 31 164 6z"/>
<path d="M11930 2520 c-136 -63 -140 -66 -140 -94 0 -21 400 -904 423 -933 17
-22 54 -14 159 34 115 52 138 68 138 94 0 22 -406 907 -428 932 -22 24 -34 22
-152 -33z m319 -454 c111 -241 200 -439 199 -440 -25 -16 -192 -85 -196 -82
-9 9 -402 869 -399 872 5 5 192 92 193 91 1 -1 92 -199 203 -441z"/>
<path d="M6042 1751 c-92 -43 -215 -188 -254 -300 -24 -66 -20 -147 8 -206 44
-94 173 -193 273 -210 83 -14 212 34 219 81 2 12 -9 35 -23 53 -32 37 -24 40
17 6 16 -14 36 -25 43 -25 19 0 97 92 132 154 25 45 28 61 28 136 0 70 -4 93
-24 133 -30 57 -110 136 -172 168 -63 32 -188 38 -247 10z m229 -57 c47 -24
118 -93 142 -139 16 -30 22 -58 22 -115 0 -80 -17 -120 -83 -200 l-29 -34
-133 106 c-146 116 -158 120 -179 55 -20 -61 22 -117 88 -117 23 0 40 -12 80
-57 28 -32 51 -63 51 -70 0 -19 -106 -46 -152 -39 -92 15 -200 101 -238 188
-29 67 -23 133 19 216 34 67 137 184 184 208 65 34 160 33 228 -2z m-161 -386
c0 -14 -28 -8 -44 8 -24 23 -8 37 19 17 14 -10 25 -21 25 -25z"/>
<path d="M6136 1529 c-37 -29 -33 -52 18 -93 50 -42 69 -45 90 -14 23 33 20
75 -9 103 -30 30 -64 32 -99 4z m72 -52 c3 -16 1 -17 -17 -7 -25 13 -28 33 -4
28 10 -2 19 -11 21 -21z"/>
</g>
</svg>
