<?xml version="1.0" standalone="no"?>
<!DOCTYPE svg PUBLIC "-//W3C//DTD SVG 20010904//EN"
 "http://www.w3.org/TR/2001/REC-SVG-20010904/DTD/svg10.dtd">
<svg version="1.0" xmlns="http://www.w3.org/2000/svg"
 width="1920.000000pt" height="1080.000000pt" viewBox="0 0 1920.000000 1080.000000"
 preserveAspectRatio="xMidYMid meet">

<g transform="translate(0.000000,1080.000000) scale(0.100000,-0.100000)"
fill="#000000" stroke="none">
<path d="M4517 6910 c-43 -8 -81 -33 -111 -74 l-21 -27 0 -1618 0 -1618 29
-37 c53 -70 -15 -67 1129 -64 l1034 3 37 29 c65 49 66 55 66 449 0 351 0 354
-22 387 -13 18 -36 43 -51 54 -28 21 -38 21 -588 24 l-559 2 0 155 0 154 318
3 319 3 36 28 c72 55 72 54 75 422 4 353 1 381 -44 435 -51 60 -54 60 -394 60
l-310 0 0 140 0 139 553 3 c536 3 553 4 587 24 19 11 45 38 57 60 22 38 23 45
23 395 0 353 0 356 -22 389 -32 46 -68 71 -119 81 -54 10 -1969 10 -2022 -1z
m1953 -475 l0 -265 -576 -2 -576 -3 -34 -37 -34 -38 0 -269 c0 -378 -33 -351
425 -351 l325 0 -2 -262 -3 -263 -338 -5 -339 -5 -34 -38 -35 -38 3 -288 c3
-273 4 -290 23 -311 44 -50 46 -50 640 -50 l555 0 0 -265 0 -265 -940 0 -940
0 0 1510 0 1510 940 0 940 0 0 -265z"/>
<path d="M549 6888 c-42 -29 -69 -80 -69 -133 0 -22 178 -748 394 -1613 327
-1304 398 -1578 420 -1606 50 -66 52 -66 478 -66 379 0 383 1 423 23 73 41 77
58 155 597 66 456 77 524 79 492 2 -31 162 -951 171 -984 13 -48 55 -97 97
-114 41 -18 785 -20 830 -3 47 18 93 70 108 124 35 123 715 3126 715 3156 0
46 -30 99 -70 127 l-33 22 -447 0 -447 0 -34 -23 c-63 -41 -70 -70 -154 -581
-43 -262 -80 -474 -82 -472 -2 2 -44 220 -93 485 -75 409 -92 488 -113 520
-47 71 -50 71 -464 71 l-368 0 -38 -25 c-20 -14 -44 -40 -53 -57 -13 -25 -174
-943 -174 -990 0 -40 -19 51 -95 467 -47 259 -93 487 -102 508 -9 22 -33 51
-52 65 l-34 27 -457 3 -456 3 -35 -23z m851 -196 c0 -37 263 -1434 274 -1459
20 -42 58 -66 106 -66 48 0 86 24 106 66 8 18 67 354 132 747 l117 715 285 3
285 2 129 -707 c71 -390 137 -727 147 -750 21 -50 57 -76 108 -76 46 0 84 24
104 65 8 17 68 354 133 749 l119 719 342 0 c270 0 341 -3 338 -12 -4 -11 -667
-2910 -682 -2980 l-6 -28 -318 0 -319 0 -5 23 c-3 12 -62 353 -131 757 -69
404 -132 749 -139 767 -30 70 -129 91 -185 38 -15 -15 -32 -39 -35 -54 -4 -14
-58 -363 -119 -776 l-111 -750 -309 0 -310 0 -377 1508 -377 1507 349 0 c192
0 349 -4 349 -8z"/>
<path d="M6799 6887 c-19 -12 -44 -42 -57 -67 l-22 -45 2 -1595 3 -1595 23
-37 c14 -22 40 -45 67 -58 43 -21 47 -21 737 -18 673 4 696 4 795 26 325 71
571 222 714 439 50 77 102 200 114 271 4 24 9 42 11 40 2 -2 8 -37 15 -78 57
-371 357 -626 842 -717 68 -12 147 -17 307 -17 184 0 231 3 328 22 424 85 693
302 778 627 25 95 25 313 1 405 -55 207 -198 365 -442 488 l-80 40 191 4 c184
3 192 4 227 28 49 33 67 74 67 154 l0 65 33 -19 c20 -12 62 -22 114 -26 l82
-7 4 -606 c4 -673 4 -672 73 -818 61 -128 164 -210 336 -269 141 -48 231 -57
533 -58 318 -1 334 2 383 77 27 40 27 42 30 256 l4 216 20 -75 c64 -242 242
-406 517 -476 238 -61 533 -32 694 66 l48 30 33 -35 c18 -19 45 -39 60 -45 17
-6 177 -10 435 -10 406 0 408 0 451 23 30 16 51 37 67 67 l24 44 -3 881 c-4
863 -4 881 -25 946 -30 95 -55 149 -104 221 -165 244 -472 410 -839 454 -567
67 -1069 -137 -1271 -519 l-38 -72 -1 214 c0 198 -2 218 -21 259 -13 25 -37
54 -60 69 -35 23 -51 26 -168 31 l-129 5 -4 241 c-3 203 -6 246 -20 272 -21
39 -71 82 -106 92 -15 4 -198 7 -407 7 -431 0 -432 0 -482 -76 l-28 -42 -3
-247 -3 -247 -81 -7 c-112 -9 -151 -32 -183 -109 -12 -29 -15 -81 -16 -249 l0
-213 -24 52 c-121 266 -391 459 -741 529 -113 23 -441 26 -554 5 -359 -65
-631 -252 -751 -517 -49 -108 -72 -222 -72 -364 -1 -69 5 -152 12 -185 46
-212 176 -388 376 -509 l60 -36 -180 0 c-165 0 -183 -2 -215 -21 -19 -11 -43
-31 -52 -42 -17 -21 -18 -20 -18 46 -1 298 -92 549 -262 718 l-56 57 35 34
c95 91 178 259 208 423 25 133 16 364 -19 499 -106 406 -414 636 -931 696 -52
6 -354 10 -721 10 l-631 0 -34 -23z m1401 -202 c340 -46 554 -174 661 -396 56
-116 72 -196 73 -374 0 -126 -3 -174 -18 -225 -38 -139 -98 -225 -238 -345
-85 -73 -74 -145 34 -225 205 -152 302 -401 277 -717 -9 -122 -23 -178 -65
-271 -96 -212 -298 -353 -609 -425 -85 -19 -125 -21 -737 -24 l-648 -4 0 1510
0 1511 583 0 c448 0 606 -4 687 -15z m4282 -459 c3 -249 4 -266 24 -293 39
-53 75 -63 227 -63 l137 0 0 -214 0 -214 -142 -4 c-155 -4 -186 -13 -222 -61
-21 -28 -21 -38 -21 -485 0 -411 2 -463 18 -515 32 -104 124 -167 244 -167
l53 0 0 -270 0 -270 -172 0 c-294 1 -440 23 -575 86 -79 38 -107 67 -147 154
-41 90 -46 182 -46 828 0 665 2 645 -63 678 -20 11 -66 19 -124 22 l-93 5 0
212 0 213 98 4 c73 3 104 8 125 22 54 36 57 52 57 336 l0 260 309 0 310 0 3
-264z m-1997 -327 c410 -50 678 -280 720 -616 l7 -53 -299 0 -299 0 -12 47
c-46 170 -315 232 -462 105 -81 -69 -103 -171 -57 -262 42 -84 132 -124 432
-194 254 -58 418 -127 558 -232 137 -103 192 -217 191 -399 -1 -158 -39 -273
-127 -378 -153 -183 -496 -292 -862 -274 -304 16 -531 93 -683 232 -111 101
-164 201 -180 338 l-8 67 312 0 312 0 11 -32 c48 -137 240 -213 412 -162 108
32 175 140 148 239 -31 110 -99 145 -438 224 -508 119 -721 317 -721 667 1
200 51 329 180 455 63 63 96 86 181 128 194 96 433 131 684 100z m3885 -4 c63
-8 149 -23 190 -35 114 -32 284 -119 365 -187 84 -71 165 -186 197 -280 l23
-68 3 -822 3 -823 -331 0 -330 0 0 55 c0 101 -43 155 -122 155 -47 -1 -71 -17
-126 -85 -92 -115 -259 -172 -472 -161 -307 16 -494 152 -546 394 -18 86 -18
317 0 402 40 187 151 303 351 366 135 43 249 55 547 61 310 6 325 10 354 78
17 41 19 173 3 230 -17 61 -71 128 -131 160 -44 24 -68 30 -140 33 -117 6
-174 -14 -247 -86 l-53 -53 -332 22 c-182 13 -333 24 -335 26 -10 7 24 124 54
188 67 138 178 245 340 325 210 104 457 139 735 105z m-1346 -681 c8 -59 35
-97 89 -123 35 -17 82 -24 248 -36 112 -8 215 -15 229 -16 14 0 -11 -11 -55
-24 -217 -64 -377 -186 -453 -346 -46 -94 -70 -179 -79 -275 l-6 -65 -31 29
c-49 47 -75 56 -171 62 l-90 5 -3 396 -2 396 123 5 c83 3 132 10 152 20 42 22
42 23 49 -28z m-2646 20 c16 -5 22 -14 22 -36 0 -20 -4 -29 -12 -26 -7 3 -37
13 -67 23 -50 16 -53 19 -36 31 20 15 55 18 93 8z m3875 -86 c9 -7 19 -25 23
-40 l6 -28 -101 0 c-65 0 -101 4 -101 11 0 6 13 24 29 40 25 24 38 29 78 29
27 0 57 -6 66 -12z m-3928 -859 c18 -7 18 -8 -5 -8 -14 0 -36 6 -50 14 l-25
15 30 -6 c17 -4 39 -11 50 -15z"/>
<path d="M7652 6150 c-57 -35 -62 -60 -62 -340 0 -279 5 -304 62 -340 31 -19
46 -21 213 -18 170 3 183 4 235 29 80 37 125 81 162 157 31 63 33 73 33 177 0
127 -18 181 -83 248 -80 83 -162 107 -372 107 -138 0 -159 -2 -188 -20z m367
-206 c48 -19 71 -61 71 -131 0 -112 -53 -153 -197 -153 l-93 0 0 150 0 150 90
0 c58 0 103 -6 129 -16z"/>
<path d="M7691 4990 c-18 -4 -48 -22 -65 -39 l-31 -31 -3 -300 c-3 -329 -1
-343 56 -385 24 -17 46 -20 176 -23 234 -5 329 20 413 111 52 56 69 90 88 169
19 80 19 146 0 226 -19 79 -36 113 -88 169 -80 87 -173 113 -397 112 -63 -1
-130 -5 -149 -9z m368 -225 c42 -21 64 -77 64 -160 0 -145 -47 -184 -220 -185
l-103 0 0 180 0 180 115 0 c82 0 124 -4 144 -15z"/>
<path d="M14081 4564 c-73 -19 -130 -60 -166 -118 -28 -46 -30 -57 -30 -140 0
-100 10 -127 66 -184 58 -59 83 -67 199 -67 95 0 111 3 162 28 74 36 143 112
163 180 19 65 20 197 1 242 -26 62 -62 75 -211 74 -80 0 -151 -6 -184 -15z
m199 -214 c0 -11 -13 -34 -28 -51 -23 -26 -38 -33 -80 -37 -61 -5 -82 7 -82
50 0 38 42 57 128 58 55 0 62 -2 62 -20z"/>
<path d="M17457 6701 c-56 -12 -83 -29 -114 -74 l-28 -40 -3 -247 -3 -247 -81
-7 c-44 -4 -93 -13 -110 -22 -27 -14 -33 -13 -92 10 -109 44 -294 51 -404 15
-48 -15 -132 -57 -154 -77 -16 -13 -18 -13 -24 2 -3 9 -26 28 -49 42 l-43 25
-425 -3 c-412 -3 -426 -4 -453 -24 -15 -11 -37 -33 -48 -48 -21 -27 -21 -33
-24 -1213 -2 -1184 -2 -1186 19 -1229 12 -26 36 -53 57 -66 37 -23 40 -23 437
-26 262 -2 412 0 436 7 51 15 88 48 110 95 17 39 19 79 19 664 0 595 1 625 19
661 22 41 80 86 132 101 43 13 161 12 217 0 61 -14 124 4 161 45 29 33 43 78
57 182 l6 52 27 -19 c28 -21 110 -40 172 -40 l38 0 3 -607 c4 -589 5 -610 26
-688 60 -217 164 -326 384 -401 141 -48 231 -57 533 -58 314 -1 329 2 383 72
l27 35 3 341 c2 188 0 355 -3 373 -15 82 -98 132 -216 133 -61 0 -78 3 -83 16
-3 9 -6 189 -6 400 l0 384 89 0 c167 0 237 27 272 104 17 37 19 70 19 330 0
275 -1 292 -21 334 -13 25 -37 54 -60 69 -35 23 -51 26 -168 31 l-129 5 -4
241 c-3 252 -5 263 -52 314 -51 57 -51 57 -446 59 -201 1 -382 -2 -403 -6z
m685 -475 c3 -249 4 -266 24 -293 39 -53 75 -63 227 -63 l137 0 0 -214 0 -214
-142 -4 c-155 -4 -186 -13 -222 -61 -21 -28 -21 -38 -21 -485 0 -422 1 -461
19 -515 35 -105 124 -167 243 -167 l53 0 0 -271 0 -272 -237 6 c-194 4 -256 9
-337 27 -172 38 -253 84 -301 171 -59 110 -58 95 -62 813 -4 551 -7 664 -19
688 -22 43 -67 60 -171 66 l-93 5 0 213 0 214 86 0 c100 0 146 17 175 64 17
28 19 54 19 294 l0 262 309 0 310 0 3 -264z m-1223 -337 c30 -10 32 -15 27
-43 -5 -29 -96 -623 -96 -628 0 -2 -42 -2 -92 0 -110 4 -194 -10 -262 -45 -70
-36 -161 -125 -194 -192 l-27 -56 -3 -622 -3 -623 -329 0 -330 0 0 1095 0
1095 330 0 330 0 0 -49 c0 -27 4 -61 10 -75 13 -35 67 -66 113 -66 36 0 46 7
125 89 107 109 153 130 283 130 47 1 101 -4 118 -10z"/>
</g>
</svg>
